# xmcd CD database file
#
# Track frame offsets:
#	150
#	15465
#	25867
#
# Disc length: 589 seconds
#
# Revision: 0
# Processed by: cddbd v1.5.1PL0 Copyright (c) Steve Scherf et al.
# Submitted via: CDex 1.51
#
DISCID=15024b03
DTITLE=COIL - クルクル　フェチ
DYEAR=1999
DGENRE=JPop
TTITLE0=クルクル　フェチ
TTITLE1=（仮）タイパニック
TTITLE2=cloudy
EXTD=YEAR: 1999
EXTT0=
EXTT1=
EXTT2=
PLAYORDER=
